<?xml version="1.0" encoding="UTF-8" standalone="no"?>
<!DOCTYPE svg PUBLIC "-//W3C//DTD SVG 1.1//EN"
 "http://www.w3.org/Graphics/SVG/1.1/DTD/svg11.dtd">
<!-- Generated by graphviz version 2.38.0 (20140413.2041)
 -->
<!-- Title: %3 Pages: 1 -->
<svg width="1359pt" height="989pt"
 viewBox="0.00 0.00 1358.75 989.07" xmlns="http://www.w3.org/2000/svg" xmlns:xlink="http://www.w3.org/1999/xlink">
<g id="graph0" class="graph" transform="scale(1 1) rotate(0) translate(4 985.072)">
<title>%3</title>
<polygon fill="white" stroke="none" points="-4,4 -4,-985.072 1354.75,-985.072 1354.75,4 -4,4"/>
<!-- example.com/hello -->
<g id="node1" class="node"><title>example.com/hello</title>
<polygon fill="#e94762" stroke="none" points="806.953,-424.39 662.953,-424.39 662.953,-388.39 806.953,-388.39 806.953,-424.39"/>
<text text-anchor="middle" x="734.953" y="-402.69" font-family="Helvetica,sans-Serif" font-size="14.00">example.com/hello</text>
</g>
<!-- github.com/go&#45;modules&#45;by&#45;example&#45;forks/incomplete -->
<g id="node2" class="node"><title>github.com/go&#45;modules&#45;by&#45;example&#45;forks/incomplete</title>
<text text-anchor="middle" x="1160.75" y="-402.69" font-family="Helvetica,sans-Serif" font-size="14.00">github.com/go&#45;modules&#45;by&#45;example&#45;forks/incomplete</text>
</g>
<!-- example.com/hello&#45;&gt;github.com/go&#45;modules&#45;by&#45;example&#45;forks/incomplete -->
<g id="edge1" class="edge"><title>example.com/hello&#45;&gt;github.com/go&#45;modules&#45;by&#45;example&#45;forks/incomplete</title>
<path fill="none" stroke="black" d="M807.183,-406.39C849.622,-406.39 905.56,-406.39 960.386,-406.39"/>
<polygon fill="black" stroke="black" points="960.607,-409.89 970.607,-406.39 960.607,-402.89 960.607,-409.89"/>
</g>
<!-- github.com/kr/pretty -->
<g id="node3" class="node"><title>github.com/kr/pretty</title>
<text text-anchor="middle" x="767.019" y="-698.595" font-family="Helvetica,sans-Serif" font-size="14.00">github.com/kr/pretty</text>
</g>
<!-- example.com/hello&#45;&gt;github.com/kr/pretty -->
<g id="edge2" class="edge"><title>example.com/hello&#45;&gt;github.com/kr/pretty</title>
<path fill="none" stroke="black" d="M736.91,-424.454C742.299,-474.186 757.387,-613.409 763.929,-673.776"/>
<polygon fill="black" stroke="black" points="760.489,-674.526 765.046,-684.09 767.449,-673.771 760.489,-674.526"/>
</g>
<!-- github.com/sirupsen/logrus -->
<g id="node4" class="node"><title>github.com/sirupsen/logrus</title>
<text text-anchor="middle" x="330.022" y="-271.036" font-family="Helvetica,sans-Serif" font-size="14.00">github.com/sirupsen/logrus</text>
</g>
<!-- example.com/hello&#45;&gt;github.com/sirupsen/logrus -->
<g id="edge3" class="edge"><title>example.com/hello&#45;&gt;github.com/sirupsen/logrus</title>
<path fill="none" stroke="black" d="M679.498,-388.36C605.342,-364.25 474.101,-321.58 395.273,-295.951"/>
<polygon fill="black" stroke="black" points="396.047,-292.523 385.455,-292.759 393.883,-299.18 396.047,-292.523"/>
</g>
<!-- golang.org/x/tools -->
<g id="node5" class="node"><title>golang.org/x/tools</title>
<text text-anchor="middle" x="909.466" y="-14.3" font-family="Helvetica,sans-Serif" font-size="14.00">golang.org/x/tools</text>
</g>
<!-- example.com/hello&#45;&gt;golang.org/x/tools -->
<g id="edge4" class="edge"><title>example.com/hello&#45;&gt;golang.org/x/tools</title>
<path fill="none" stroke="black" d="M743.136,-388.178C771.189,-325.743 863.589,-120.102 897.147,-45.4156"/>
<polygon fill="black" stroke="black" points="900.394,-46.7285 901.3,-36.1725 894.009,-43.8595 900.394,-46.7285"/>
</g>
<!-- github.com/kr/text -->
<g id="node6" class="node"><title>github.com/kr/text</title>
<text text-anchor="middle" x="781.472" y="-831.96" font-family="Helvetica,sans-Serif" font-size="14.00">github.com/kr/text</text>
</g>
<!-- github.com/kr/pretty&#45;&gt;github.com/kr/text -->
<g id="edge5" class="edge"><title>github.com/kr/pretty&#45;&gt;github.com/kr/text</title>
<path fill="none" stroke="black" d="M768.998,-720.559C771.431,-743.006 775.584,-781.333 778.425,-807.545"/>
<polygon fill="black" stroke="black" points="774.959,-808.052 779.516,-817.617 781.918,-807.298 774.959,-808.052"/>
</g>
<!-- github.com/davecgh/go&#45;spew -->
<g id="node8" class="node"><title>github.com/davecgh/go&#45;spew</title>
<text text-anchor="middle" x="498.401" y="-415.074" font-family="Helvetica,sans-Serif" font-size="14.00">github.com/davecgh/go&#45;spew</text>
</g>
<!-- github.com/sirupsen/logrus&#45;&gt;github.com/davecgh/go&#45;spew -->
<g id="edge7" class="edge"><title>github.com/sirupsen/logrus&#45;&gt;github.com/davecgh/go&#45;spew</title>
<path fill="none" stroke="black" d="M351.347,-292.979C381.332,-318.629 436.034,-365.423 469.605,-394.141"/>
<polygon fill="black" stroke="black" points="467.374,-396.839 477.248,-400.679 471.925,-391.519 467.374,-396.839"/>
</g>
<!-- github.com/konsorten/go&#45;windows&#45;terminal&#45;sequences -->
<g id="node9" class="node"><title>github.com/konsorten/go&#45;windows&#45;terminal&#45;sequences</title>
<text text-anchor="middle" x="268.169" y="-483.809" font-family="Helvetica,sans-Serif" font-size="14.00">github.com/konsorten/go&#45;windows&#45;terminal&#45;sequences</text>
</g>
<!-- github.com/sirupsen/logrus&#45;&gt;github.com/konsorten/go&#45;windows&#45;terminal&#45;sequences -->
<g id="edge8" class="edge"><title>github.com/sirupsen/logrus&#45;&gt;github.com/konsorten/go&#45;windows&#45;terminal&#45;sequences</title>
<path fill="none" stroke="black" d="M324.748,-292.877C313.93,-330.092 289.164,-415.29 276.285,-459.593"/>
<polygon fill="black" stroke="black" points="272.86,-458.835 273.43,-469.414 279.582,-460.789 272.86,-458.835"/>
</g>
<!-- github.com/pmezard/go&#45;difflib -->
<g id="node10" class="node"><title>github.com/pmezard/go&#45;difflib</title>
<text text-anchor="middle" x="110.5" y="-301.174" font-family="Helvetica,sans-Serif" font-size="14.00">github.com/pmezard/go&#45;difflib</text>
</g>
<!-- github.com/sirupsen/logrus&#45;&gt;github.com/pmezard/go&#45;difflib -->
<g id="edge9" class="edge"><title>github.com/sirupsen/logrus&#45;&gt;github.com/pmezard/go&#45;difflib</title>
<path fill="none" stroke="black" d="M228.935,-288.614C228.773,-288.637 228.612,-288.659 228.45,-288.681"/>
<polygon fill="black" stroke="black" points="230.588,-284.855 221.157,-289.682 231.54,-291.789 230.588,-284.855"/>
</g>
<!-- github.com/stretchr/objx -->
<g id="node11" class="node"><title>github.com/stretchr/objx</title>
<text text-anchor="middle" x="165.289" y="-122.843" font-family="Helvetica,sans-Serif" font-size="14.00">github.com/stretchr/objx</text>
</g>
<!-- github.com/sirupsen/logrus&#45;&gt;github.com/stretchr/objx -->
<g id="edge10" class="edge"><title>github.com/sirupsen/logrus&#45;&gt;github.com/stretchr/objx</title>
<path fill="none" stroke="black" d="M309.822,-256.565C280.473,-230.162 225.945,-181.11 192.904,-151.386"/>
<polygon fill="black" stroke="black" points="195.171,-148.717 185.395,-144.631 190.489,-153.921 195.171,-148.717"/>
</g>
<!-- github.com/stretchr/testify -->
<g id="node12" class="node"><title>github.com/stretchr/testify</title>
<text text-anchor="middle" x="330.563" y="-49.4557" font-family="Helvetica,sans-Serif" font-size="14.00">github.com/stretchr/testify</text>
</g>
<!-- github.com/sirupsen/logrus&#45;&gt;github.com/stretchr/testify -->
<g id="edge11" class="edge"><title>github.com/sirupsen/logrus&#45;&gt;github.com/stretchr/testify</title>
<path fill="none" stroke="black" d="M330.066,-256.603C330.16,-218.041 330.381,-127.65 330.494,-81.4407"/>
<polygon fill="black" stroke="black" points="333.994,-81.2369 330.519,-71.2284 326.994,-81.2198 333.994,-81.2369"/>
</g>
<!-- golang.org/x/crypto -->
<g id="node13" class="node"><title>golang.org/x/crypto</title>
<text text-anchor="middle" x="488.323" y="-115.992" font-family="Helvetica,sans-Serif" font-size="14.00">golang.org/x/crypto</text>
</g>
<!-- github.com/sirupsen/logrus&#45;&gt;golang.org/x/crypto -->
<g id="edge12" class="edge"><title>github.com/sirupsen/logrus&#45;&gt;golang.org/x/crypto</title>
<path fill="none" stroke="black" d="M348.491,-256.647C376.579,-229.137 430.147,-176.671 462.209,-145.269"/>
<polygon fill="black" stroke="black" points="464.786,-147.644 469.481,-138.146 459.888,-142.643 464.786,-147.644"/>
</g>
<!-- golang.org/x/sys -->
<g id="node14" class="node"><title>golang.org/x/sys</title>
<text text-anchor="middle" x="550.913" y="-253.56" font-family="Helvetica,sans-Serif" font-size="14.00">golang.org/x/sys</text>
</g>
<!-- github.com/sirupsen/logrus&#45;&gt;golang.org/x/sys -->
<g id="edge13" class="edge"><title>github.com/sirupsen/logrus&#45;&gt;golang.org/x/sys</title>
<path fill="none" stroke="black" d="M431.094,-266.74C446.508,-265.52 462.167,-264.281 476.86,-263.119"/>
<polygon fill="black" stroke="black" points="477.169,-266.606 486.862,-262.328 476.617,-259.627 477.169,-266.606"/>
</g>
<!-- github.com/kr/pty -->
<g id="node7" class="node"><title>github.com/kr/pty</title>
<text text-anchor="middle" x="795.279" y="-959.372" font-family="Helvetica,sans-Serif" font-size="14.00">github.com/kr/pty</text>
</g>
<!-- github.com/kr/text&#45;&gt;github.com/kr/pty -->
<g id="edge6" class="edge"><title>github.com/kr/text&#45;&gt;github.com/kr/pty</title>
<path fill="none" stroke="black" d="M783.45,-853.915C785.736,-875.014 789.527,-909.991 792.2,-934.657"/>
<polygon fill="black" stroke="black" points="788.747,-935.286 793.304,-944.851 795.707,-934.532 788.747,-935.286"/>
</g>
</g>
</svg>
